<?xml version="1.0" ?><svg id="Capa_1" style="enable-background:new 0 0 512.001 512.001;" version="1.1" viewBox="0 0 512.001 512.001" xml:space="preserve" xmlns="http://www.w3.org/2000/svg" xmlns:xlink="http://www.w3.org/1999/xlink"><g><g><path d="M116.005,165.996c-5.52,0-10,4.48-10,10c0,5.519,4.48,10,10,10s10-4.48,10-10    C126.005,170.475,121.525,165.996,116.005,165.996z"/></g></g><g><g><path d="M439.152,60.51L258.828,0.511c-2.054-0.683-4.272-0.682-6.324,0.003L72.838,60.513c-4.08,1.363-6.832,5.183-6.832,9.485    V332.51c0,36.866,18.311,71.079,48.982,91.518l124.385,82.918c5.055,3.37,10.849,5.056,16.643,5.056    c5.794,0,11.588-1.686,16.643-5.056l124.355-82.918l-0.002,0.001c30.672-20.439,48.983-54.652,48.983-91.518V69.998    C445.995,65.692,443.238,61.87,439.152,60.51z M425.996,332.51c0,30.162-14.981,58.153-40.075,74.877c0,0-0.001,0.001-0.002,0.001    l-124.354,82.918c-3.37,2.246-7.725,2.246-11.097,0l-124.387-82.919c-25.094-16.724-40.075-44.715-40.075-74.877V77.201    l169.671-56.66L425.996,77.21V332.51z"/></g></g><g><g><path d="M399.423,92.703L260.312,42.017c-0.818-0.389-1.696-0.67-2.619-0.826c-1.806-0.369-3.688-0.243-5.436,0.397    L112.571,92.677c-3.943,1.442-6.565,5.193-6.565,9.392v33.619c0,5.522,4.478,10,10,10s10-4.478,10-10v-26.629l119.996-43.887    v160.822H126.006v-9.69c0-5.522-4.478-10-10-10s-10,4.478-10,10v116.207c0,23.462,11.654,45.235,31.172,58.239l113.219,75.479    c0.011,0.007,0.022,0.014,0.033,0.022l0.025,0.017c0.016,0.011,0.036,0.019,0.052,0.03c0.303,0.199,0.618,0.379,0.943,0.546    c0.034,0.017,0.066,0.041,0.1,0.058c0.06,0.03,0.123,0.05,0.183,0.079c0.228,0.108,0.459,0.208,0.696,0.298    c0.126,0.049,0.253,0.096,0.38,0.139c0.2,0.067,0.403,0.125,0.608,0.18c0.159,0.043,0.317,0.088,0.478,0.123    c0.147,0.031,0.297,0.052,0.446,0.078c0.557,0.095,1.118,0.159,1.679,0.159c0.16,0,0.319-0.027,0.479-0.035    c0.226-0.011,0.451-0.023,0.673-0.049c0.217-0.025,0.431-0.059,0.646-0.099c0.201-0.037,0.399-0.083,0.596-0.132    c0.337-0.083,0.667-0.185,0.995-0.303c0.19-0.069,0.382-0.136,0.567-0.217c0.221-0.095,0.436-0.202,0.651-0.314    c0.141-0.074,0.278-0.154,0.415-0.234c0.175-0.102,0.358-0.185,0.528-0.298l113.268-75.537    c19.512-13.013,31.161-34.783,31.161-58.238V102.098C405.998,97.896,403.37,94.142,399.423,92.703z M246.001,439.263    l-97.732-65.155c-13.942-9.289-22.264-24.839-22.264-41.598v-86.516h119.996V439.263z M385.997,332.501    c0,16.754-8.321,32.304-22.258,41.599L266,439.281V245.993h119.997V332.501z M385.997,225.994H266V65.375l119.997,43.722V225.994z    "/></g></g><g/><g/><g/><g/><g/><g/><g/><g/><g/><g/><g/><g/><g/><g/><g/></svg>
